<mxfile host="app.diagrams.net" agent="Mozilla/5.0 (Macintosh; Intel Mac OS X 10_15_7) AppleWebKit/537.36 (KHTML, like Gecko) Chrome/127.0.0.0 Safari/537.36" version="24.7.6">
  <diagram name="第 1 页" id="1-SlS3tyV0vHm_q7h1zd">
    <mxGraphModel dx="896" dy="1763" grid="1" gridSize="10" guides="1" tooltips="1" connect="1" arrows="1" fold="1" page="1" pageScale="1" pageWidth="827" pageHeight="1169" math="0" shadow="0">
      <root>
        <mxCell id="0" />
        <mxCell id="1" parent="0" />
        <mxCell id="YqOsHQOTy-0xBnUob16i-38" style="edgeStyle=orthogonalEdgeStyle;rounded=0;orthogonalLoop=1;jettySize=auto;html=1;entryX=0.5;entryY=0;entryDx=0;entryDy=0;" edge="1" parent="1" source="YqOsHQOTy-0xBnUob16i-1" target="YqOsHQOTy-0xBnUob16i-4">
          <mxGeometry relative="1" as="geometry" />
        </mxCell>
        <mxCell id="YqOsHQOTy-0xBnUob16i-1" value="&lt;span style=&quot;font-size: 7px; text-wrap: nowrap;&quot;&gt;dictEntry&lt;/span&gt;" style="rounded=0;whiteSpace=wrap;html=1;" vertex="1" parent="1">
          <mxGeometry x="150" y="170" width="50" height="30" as="geometry" />
        </mxCell>
        <mxCell id="YqOsHQOTy-0xBnUob16i-41" style="edgeStyle=orthogonalEdgeStyle;rounded=0;orthogonalLoop=1;jettySize=auto;html=1;exitX=0.5;exitY=1;exitDx=0;exitDy=0;entryX=0.5;entryY=0;entryDx=0;entryDy=0;" edge="1" parent="1" source="YqOsHQOTy-0xBnUob16i-2" target="YqOsHQOTy-0xBnUob16i-9">
          <mxGeometry relative="1" as="geometry" />
        </mxCell>
        <mxCell id="YqOsHQOTy-0xBnUob16i-2" value="&lt;span style=&quot;font-size: 7px; text-wrap: nowrap;&quot;&gt;dictEntry&lt;/span&gt;" style="rounded=0;whiteSpace=wrap;html=1;" vertex="1" parent="1">
          <mxGeometry x="200" y="170" width="50" height="30" as="geometry" />
        </mxCell>
        <mxCell id="YqOsHQOTy-0xBnUob16i-39" style="edgeStyle=orthogonalEdgeStyle;rounded=0;orthogonalLoop=1;jettySize=auto;html=1;exitX=0.5;exitY=1;exitDx=0;exitDy=0;entryX=0.5;entryY=0;entryDx=0;entryDy=0;" edge="1" parent="1" source="YqOsHQOTy-0xBnUob16i-4" target="YqOsHQOTy-0xBnUob16i-7">
          <mxGeometry relative="1" as="geometry" />
        </mxCell>
        <mxCell id="YqOsHQOTy-0xBnUob16i-4" value="&lt;span style=&quot;text-wrap: nowrap;&quot;&gt;&lt;font style=&quot;font-size: 7px;&quot;&gt;dictEntry&lt;/font&gt;&lt;/span&gt;" style="rounded=0;whiteSpace=wrap;html=1;" vertex="1" parent="1">
          <mxGeometry x="160" y="220" width="30" height="20" as="geometry" />
        </mxCell>
        <mxCell id="YqOsHQOTy-0xBnUob16i-40" style="edgeStyle=orthogonalEdgeStyle;rounded=0;orthogonalLoop=1;jettySize=auto;html=1;exitX=0.5;exitY=1;exitDx=0;exitDy=0;entryX=0.5;entryY=0;entryDx=0;entryDy=0;" edge="1" parent="1" source="YqOsHQOTy-0xBnUob16i-7" target="YqOsHQOTy-0xBnUob16i-8">
          <mxGeometry relative="1" as="geometry" />
        </mxCell>
        <mxCell id="YqOsHQOTy-0xBnUob16i-7" value="&lt;span style=&quot;font-size: 7px; text-wrap: nowrap;&quot;&gt;dictEntry&lt;/span&gt;" style="rounded=0;whiteSpace=wrap;html=1;" vertex="1" parent="1">
          <mxGeometry x="160" y="260" width="30" height="20" as="geometry" />
        </mxCell>
        <mxCell id="YqOsHQOTy-0xBnUob16i-8" value="&lt;span style=&quot;font-size: 7px; text-wrap: nowrap;&quot;&gt;dictEntry&lt;/span&gt;" style="rounded=0;whiteSpace=wrap;html=1;" vertex="1" parent="1">
          <mxGeometry x="160" y="300" width="30" height="20" as="geometry" />
        </mxCell>
        <mxCell id="YqOsHQOTy-0xBnUob16i-42" style="edgeStyle=orthogonalEdgeStyle;rounded=0;orthogonalLoop=1;jettySize=auto;html=1;exitX=0.5;exitY=1;exitDx=0;exitDy=0;entryX=0.5;entryY=0;entryDx=0;entryDy=0;" edge="1" parent="1" source="YqOsHQOTy-0xBnUob16i-9" target="YqOsHQOTy-0xBnUob16i-10">
          <mxGeometry relative="1" as="geometry" />
        </mxCell>
        <mxCell id="YqOsHQOTy-0xBnUob16i-9" value="&lt;span style=&quot;font-size: 7px; text-wrap: nowrap;&quot;&gt;dictEntry&lt;/span&gt;" style="rounded=0;whiteSpace=wrap;html=1;" vertex="1" parent="1">
          <mxGeometry x="210" y="220" width="30" height="20" as="geometry" />
        </mxCell>
        <mxCell id="YqOsHQOTy-0xBnUob16i-43" style="edgeStyle=orthogonalEdgeStyle;rounded=0;orthogonalLoop=1;jettySize=auto;html=1;exitX=0.5;exitY=1;exitDx=0;exitDy=0;entryX=0.5;entryY=0;entryDx=0;entryDy=0;" edge="1" parent="1" source="YqOsHQOTy-0xBnUob16i-10" target="YqOsHQOTy-0xBnUob16i-11">
          <mxGeometry relative="1" as="geometry" />
        </mxCell>
        <mxCell id="YqOsHQOTy-0xBnUob16i-10" value="&lt;span style=&quot;font-size: 7px; text-wrap: nowrap;&quot;&gt;dictEntry&lt;/span&gt;" style="rounded=0;whiteSpace=wrap;html=1;" vertex="1" parent="1">
          <mxGeometry x="210" y="260" width="30" height="20" as="geometry" />
        </mxCell>
        <mxCell id="YqOsHQOTy-0xBnUob16i-11" value="&lt;span style=&quot;font-size: 7px; text-wrap: nowrap;&quot;&gt;dictEntry&lt;/span&gt;" style="rounded=0;whiteSpace=wrap;html=1;" vertex="1" parent="1">
          <mxGeometry x="210" y="300" width="30" height="20" as="geometry" />
        </mxCell>
        <mxCell id="YqOsHQOTy-0xBnUob16i-44" style="edgeStyle=orthogonalEdgeStyle;rounded=0;orthogonalLoop=1;jettySize=auto;html=1;exitX=0.5;exitY=1;exitDx=0;exitDy=0;entryX=0.5;entryY=0;entryDx=0;entryDy=0;" edge="1" parent="1" source="YqOsHQOTy-0xBnUob16i-12" target="YqOsHQOTy-0xBnUob16i-14">
          <mxGeometry relative="1" as="geometry" />
        </mxCell>
        <mxCell id="YqOsHQOTy-0xBnUob16i-12" value="&lt;span style=&quot;font-size: 7px; text-wrap: nowrap;&quot;&gt;dictEntry&lt;/span&gt;" style="rounded=0;whiteSpace=wrap;html=1;" vertex="1" parent="1">
          <mxGeometry x="250" y="170" width="50" height="30" as="geometry" />
        </mxCell>
        <mxCell id="YqOsHQOTy-0xBnUob16i-45" style="edgeStyle=orthogonalEdgeStyle;rounded=0;orthogonalLoop=1;jettySize=auto;html=1;exitX=0.5;exitY=1;exitDx=0;exitDy=0;entryX=0.5;entryY=0;entryDx=0;entryDy=0;" edge="1" parent="1" source="YqOsHQOTy-0xBnUob16i-14" target="YqOsHQOTy-0xBnUob16i-15">
          <mxGeometry relative="1" as="geometry" />
        </mxCell>
        <mxCell id="YqOsHQOTy-0xBnUob16i-14" value="&lt;span style=&quot;font-size: 7px; text-wrap: nowrap;&quot;&gt;dictEntry&lt;/span&gt;" style="rounded=0;whiteSpace=wrap;html=1;" vertex="1" parent="1">
          <mxGeometry x="260" y="220" width="30" height="20" as="geometry" />
        </mxCell>
        <mxCell id="YqOsHQOTy-0xBnUob16i-46" style="edgeStyle=orthogonalEdgeStyle;rounded=0;orthogonalLoop=1;jettySize=auto;html=1;exitX=0.5;exitY=1;exitDx=0;exitDy=0;entryX=0.5;entryY=0;entryDx=0;entryDy=0;" edge="1" parent="1" source="YqOsHQOTy-0xBnUob16i-15" target="YqOsHQOTy-0xBnUob16i-16">
          <mxGeometry relative="1" as="geometry" />
        </mxCell>
        <mxCell id="YqOsHQOTy-0xBnUob16i-15" value="&lt;span style=&quot;font-size: 7px; text-wrap: nowrap;&quot;&gt;dictEntry&lt;/span&gt;" style="rounded=0;whiteSpace=wrap;html=1;" vertex="1" parent="1">
          <mxGeometry x="260" y="260" width="30" height="20" as="geometry" />
        </mxCell>
        <mxCell id="YqOsHQOTy-0xBnUob16i-16" value="&lt;span style=&quot;font-size: 7px; text-wrap: nowrap;&quot;&gt;dictEntry&lt;/span&gt;" style="rounded=0;whiteSpace=wrap;html=1;" vertex="1" parent="1">
          <mxGeometry x="260" y="300" width="30" height="20" as="geometry" />
        </mxCell>
        <mxCell id="YqOsHQOTy-0xBnUob16i-47" style="edgeStyle=orthogonalEdgeStyle;rounded=0;orthogonalLoop=1;jettySize=auto;html=1;exitX=0.5;exitY=1;exitDx=0;exitDy=0;entryX=0.5;entryY=0;entryDx=0;entryDy=0;" edge="1" parent="1" source="YqOsHQOTy-0xBnUob16i-17" target="YqOsHQOTy-0xBnUob16i-19">
          <mxGeometry relative="1" as="geometry" />
        </mxCell>
        <mxCell id="YqOsHQOTy-0xBnUob16i-17" value="&lt;span style=&quot;font-size: 7px; text-wrap: nowrap;&quot;&gt;dictEntry&lt;/span&gt;" style="rounded=0;whiteSpace=wrap;html=1;" vertex="1" parent="1">
          <mxGeometry x="300" y="170" width="50" height="30" as="geometry" />
        </mxCell>
        <mxCell id="YqOsHQOTy-0xBnUob16i-48" style="edgeStyle=orthogonalEdgeStyle;rounded=0;orthogonalLoop=1;jettySize=auto;html=1;exitX=0.5;exitY=1;exitDx=0;exitDy=0;entryX=0.5;entryY=0;entryDx=0;entryDy=0;" edge="1" parent="1" source="YqOsHQOTy-0xBnUob16i-19" target="YqOsHQOTy-0xBnUob16i-20">
          <mxGeometry relative="1" as="geometry" />
        </mxCell>
        <mxCell id="YqOsHQOTy-0xBnUob16i-19" value="&lt;span style=&quot;font-size: 7px; text-wrap: nowrap;&quot;&gt;dictEntry&lt;/span&gt;" style="rounded=0;whiteSpace=wrap;html=1;" vertex="1" parent="1">
          <mxGeometry x="310" y="220" width="30" height="20" as="geometry" />
        </mxCell>
        <mxCell id="YqOsHQOTy-0xBnUob16i-49" style="edgeStyle=orthogonalEdgeStyle;rounded=0;orthogonalLoop=1;jettySize=auto;html=1;exitX=0.5;exitY=1;exitDx=0;exitDy=0;entryX=0.5;entryY=0;entryDx=0;entryDy=0;" edge="1" parent="1" source="YqOsHQOTy-0xBnUob16i-20" target="YqOsHQOTy-0xBnUob16i-21">
          <mxGeometry relative="1" as="geometry" />
        </mxCell>
        <mxCell id="YqOsHQOTy-0xBnUob16i-20" value="&lt;span style=&quot;font-size: 7px; text-wrap: nowrap;&quot;&gt;dictEntry&lt;/span&gt;" style="rounded=0;whiteSpace=wrap;html=1;" vertex="1" parent="1">
          <mxGeometry x="310" y="260" width="30" height="20" as="geometry" />
        </mxCell>
        <mxCell id="YqOsHQOTy-0xBnUob16i-21" value="&lt;span style=&quot;font-size: 7px; text-wrap: nowrap;&quot;&gt;dictEntry&lt;/span&gt;" style="rounded=0;whiteSpace=wrap;html=1;" vertex="1" parent="1">
          <mxGeometry x="310" y="300" width="30" height="20" as="geometry" />
        </mxCell>
        <mxCell id="YqOsHQOTy-0xBnUob16i-50" style="edgeStyle=orthogonalEdgeStyle;rounded=0;orthogonalLoop=1;jettySize=auto;html=1;exitX=0.5;exitY=0;exitDx=0;exitDy=0;entryX=0.5;entryY=1;entryDx=0;entryDy=0;" edge="1" parent="1" source="YqOsHQOTy-0xBnUob16i-22" target="YqOsHQOTy-0xBnUob16i-26">
          <mxGeometry relative="1" as="geometry" />
        </mxCell>
        <mxCell id="YqOsHQOTy-0xBnUob16i-22" value="&lt;span style=&quot;font-size: 7px; text-wrap: nowrap;&quot;&gt;dictEntry&lt;/span&gt;" style="rounded=0;whiteSpace=wrap;html=1;" vertex="1" parent="1">
          <mxGeometry x="150" y="110" width="50" height="30" as="geometry" />
        </mxCell>
        <mxCell id="YqOsHQOTy-0xBnUob16i-54" style="edgeStyle=orthogonalEdgeStyle;rounded=0;orthogonalLoop=1;jettySize=auto;html=1;exitX=0.5;exitY=0;exitDx=0;exitDy=0;entryX=0.5;entryY=1;entryDx=0;entryDy=0;" edge="1" parent="1" source="YqOsHQOTy-0xBnUob16i-23" target="YqOsHQOTy-0xBnUob16i-29">
          <mxGeometry relative="1" as="geometry" />
        </mxCell>
        <mxCell id="YqOsHQOTy-0xBnUob16i-23" value="&lt;span style=&quot;font-size: 7px; text-wrap: nowrap;&quot;&gt;dictEntry&lt;/span&gt;" style="rounded=0;whiteSpace=wrap;html=1;" vertex="1" parent="1">
          <mxGeometry x="200" y="110" width="50" height="30" as="geometry" />
        </mxCell>
        <mxCell id="YqOsHQOTy-0xBnUob16i-24" value="&lt;span style=&quot;font-size: 7px; text-wrap: nowrap;&quot;&gt;dictEntry&lt;/span&gt;" style="rounded=0;whiteSpace=wrap;html=1;" vertex="1" parent="1">
          <mxGeometry x="160" y="-10" width="30" height="20" as="geometry" />
        </mxCell>
        <mxCell id="YqOsHQOTy-0xBnUob16i-53" style="edgeStyle=orthogonalEdgeStyle;rounded=0;orthogonalLoop=1;jettySize=auto;html=1;exitX=0.5;exitY=0;exitDx=0;exitDy=0;entryX=0.5;entryY=1;entryDx=0;entryDy=0;" edge="1" parent="1" source="YqOsHQOTy-0xBnUob16i-25" target="YqOsHQOTy-0xBnUob16i-24">
          <mxGeometry relative="1" as="geometry" />
        </mxCell>
        <mxCell id="YqOsHQOTy-0xBnUob16i-25" value="&lt;span style=&quot;font-size: 7px; text-wrap: nowrap;&quot;&gt;dictEntry&lt;/span&gt;" style="rounded=0;whiteSpace=wrap;html=1;" vertex="1" parent="1">
          <mxGeometry x="160" y="30" width="30" height="20" as="geometry" />
        </mxCell>
        <mxCell id="YqOsHQOTy-0xBnUob16i-51" style="edgeStyle=orthogonalEdgeStyle;rounded=0;orthogonalLoop=1;jettySize=auto;html=1;exitX=0.5;exitY=0;exitDx=0;exitDy=0;entryX=0.5;entryY=1;entryDx=0;entryDy=0;" edge="1" parent="1" source="YqOsHQOTy-0xBnUob16i-26" target="YqOsHQOTy-0xBnUob16i-25">
          <mxGeometry relative="1" as="geometry" />
        </mxCell>
        <mxCell id="YqOsHQOTy-0xBnUob16i-26" value="&lt;span style=&quot;font-size: 7px; text-wrap: nowrap;&quot;&gt;dictEntry&lt;/span&gt;" style="rounded=0;whiteSpace=wrap;html=1;" vertex="1" parent="1">
          <mxGeometry x="160" y="70" width="30" height="20" as="geometry" />
        </mxCell>
        <mxCell id="YqOsHQOTy-0xBnUob16i-27" value="&lt;span style=&quot;font-size: 7px; text-wrap: nowrap;&quot;&gt;dictEntry&lt;/span&gt;" style="rounded=0;whiteSpace=wrap;html=1;" vertex="1" parent="1">
          <mxGeometry x="210" y="-10" width="30" height="20" as="geometry" />
        </mxCell>
        <mxCell id="YqOsHQOTy-0xBnUob16i-56" style="edgeStyle=orthogonalEdgeStyle;rounded=0;orthogonalLoop=1;jettySize=auto;html=1;exitX=0.5;exitY=0;exitDx=0;exitDy=0;entryX=0.5;entryY=1;entryDx=0;entryDy=0;" edge="1" parent="1" source="YqOsHQOTy-0xBnUob16i-28" target="YqOsHQOTy-0xBnUob16i-27">
          <mxGeometry relative="1" as="geometry" />
        </mxCell>
        <mxCell id="YqOsHQOTy-0xBnUob16i-28" value="&lt;span style=&quot;font-size: 7px; text-wrap: nowrap;&quot;&gt;dictEntry&lt;/span&gt;" style="rounded=0;whiteSpace=wrap;html=1;" vertex="1" parent="1">
          <mxGeometry x="210" y="30" width="30" height="20" as="geometry" />
        </mxCell>
        <mxCell id="YqOsHQOTy-0xBnUob16i-55" style="edgeStyle=orthogonalEdgeStyle;rounded=0;orthogonalLoop=1;jettySize=auto;html=1;exitX=0.5;exitY=0;exitDx=0;exitDy=0;entryX=0.5;entryY=1;entryDx=0;entryDy=0;" edge="1" parent="1" source="YqOsHQOTy-0xBnUob16i-29" target="YqOsHQOTy-0xBnUob16i-28">
          <mxGeometry relative="1" as="geometry" />
        </mxCell>
        <mxCell id="YqOsHQOTy-0xBnUob16i-29" value="&lt;span style=&quot;font-size: 7px; text-wrap: nowrap;&quot;&gt;dictEntry&lt;/span&gt;" style="rounded=0;whiteSpace=wrap;html=1;" vertex="1" parent="1">
          <mxGeometry x="210" y="70" width="30" height="20" as="geometry" />
        </mxCell>
        <mxCell id="YqOsHQOTy-0xBnUob16i-57" style="edgeStyle=orthogonalEdgeStyle;rounded=0;orthogonalLoop=1;jettySize=auto;html=1;exitX=0.5;exitY=0;exitDx=0;exitDy=0;entryX=0.5;entryY=1;entryDx=0;entryDy=0;" edge="1" parent="1" source="YqOsHQOTy-0xBnUob16i-30" target="YqOsHQOTy-0xBnUob16i-33">
          <mxGeometry relative="1" as="geometry" />
        </mxCell>
        <mxCell id="YqOsHQOTy-0xBnUob16i-30" value="&lt;span style=&quot;font-size: 7px; text-wrap: nowrap;&quot;&gt;dictEntry&lt;/span&gt;" style="rounded=0;whiteSpace=wrap;html=1;" vertex="1" parent="1">
          <mxGeometry x="250" y="110" width="50" height="30" as="geometry" />
        </mxCell>
        <mxCell id="YqOsHQOTy-0xBnUob16i-31" value="&lt;span style=&quot;font-size: 7px; text-wrap: nowrap;&quot;&gt;dictEntry&lt;/span&gt;" style="rounded=0;whiteSpace=wrap;html=1;" vertex="1" parent="1">
          <mxGeometry x="260" y="-10" width="30" height="20" as="geometry" />
        </mxCell>
        <mxCell id="YqOsHQOTy-0xBnUob16i-59" style="edgeStyle=orthogonalEdgeStyle;rounded=0;orthogonalLoop=1;jettySize=auto;html=1;exitX=0.5;exitY=0;exitDx=0;exitDy=0;entryX=0.5;entryY=1;entryDx=0;entryDy=0;" edge="1" parent="1" source="YqOsHQOTy-0xBnUob16i-32" target="YqOsHQOTy-0xBnUob16i-31">
          <mxGeometry relative="1" as="geometry" />
        </mxCell>
        <mxCell id="YqOsHQOTy-0xBnUob16i-32" value="&lt;span style=&quot;font-size: 7px; text-wrap: nowrap;&quot;&gt;dictEntry&lt;/span&gt;" style="rounded=0;whiteSpace=wrap;html=1;" vertex="1" parent="1">
          <mxGeometry x="260" y="30" width="30" height="20" as="geometry" />
        </mxCell>
        <mxCell id="YqOsHQOTy-0xBnUob16i-58" style="edgeStyle=orthogonalEdgeStyle;rounded=0;orthogonalLoop=1;jettySize=auto;html=1;exitX=0.5;exitY=0;exitDx=0;exitDy=0;entryX=0.5;entryY=1;entryDx=0;entryDy=0;" edge="1" parent="1" source="YqOsHQOTy-0xBnUob16i-33" target="YqOsHQOTy-0xBnUob16i-32">
          <mxGeometry relative="1" as="geometry" />
        </mxCell>
        <mxCell id="YqOsHQOTy-0xBnUob16i-33" value="&lt;span style=&quot;font-size: 7px; text-wrap: nowrap;&quot;&gt;dictEntry&lt;/span&gt;" style="rounded=0;whiteSpace=wrap;html=1;" vertex="1" parent="1">
          <mxGeometry x="260" y="70" width="30" height="20" as="geometry" />
        </mxCell>
        <mxCell id="YqOsHQOTy-0xBnUob16i-60" style="edgeStyle=orthogonalEdgeStyle;rounded=0;orthogonalLoop=1;jettySize=auto;html=1;exitX=0.5;exitY=0;exitDx=0;exitDy=0;entryX=0.5;entryY=1;entryDx=0;entryDy=0;" edge="1" parent="1" source="YqOsHQOTy-0xBnUob16i-34" target="YqOsHQOTy-0xBnUob16i-37">
          <mxGeometry relative="1" as="geometry" />
        </mxCell>
        <mxCell id="YqOsHQOTy-0xBnUob16i-34" value="&lt;span style=&quot;font-size: 7px; text-wrap: nowrap;&quot;&gt;dictEntry&lt;/span&gt;" style="rounded=0;whiteSpace=wrap;html=1;" vertex="1" parent="1">
          <mxGeometry x="300" y="110" width="50" height="30" as="geometry" />
        </mxCell>
        <mxCell id="YqOsHQOTy-0xBnUob16i-35" value="&lt;span style=&quot;font-size: 7px; text-wrap: nowrap;&quot;&gt;dictEntry&lt;/span&gt;" style="rounded=0;whiteSpace=wrap;html=1;" vertex="1" parent="1">
          <mxGeometry x="310" y="-10" width="30" height="20" as="geometry" />
        </mxCell>
        <mxCell id="YqOsHQOTy-0xBnUob16i-62" style="edgeStyle=orthogonalEdgeStyle;rounded=0;orthogonalLoop=1;jettySize=auto;html=1;exitX=0.5;exitY=0;exitDx=0;exitDy=0;entryX=0.5;entryY=1;entryDx=0;entryDy=0;" edge="1" parent="1" source="YqOsHQOTy-0xBnUob16i-36" target="YqOsHQOTy-0xBnUob16i-35">
          <mxGeometry relative="1" as="geometry" />
        </mxCell>
        <mxCell id="YqOsHQOTy-0xBnUob16i-36" value="&lt;span style=&quot;font-size: 7px; text-wrap: nowrap;&quot;&gt;dictEntry&lt;/span&gt;" style="rounded=0;whiteSpace=wrap;html=1;" vertex="1" parent="1">
          <mxGeometry x="310" y="30" width="30" height="20" as="geometry" />
        </mxCell>
        <mxCell id="YqOsHQOTy-0xBnUob16i-61" style="edgeStyle=orthogonalEdgeStyle;rounded=0;orthogonalLoop=1;jettySize=auto;html=1;exitX=0.5;exitY=0;exitDx=0;exitDy=0;entryX=0.5;entryY=1;entryDx=0;entryDy=0;" edge="1" parent="1" source="YqOsHQOTy-0xBnUob16i-37" target="YqOsHQOTy-0xBnUob16i-36">
          <mxGeometry relative="1" as="geometry" />
        </mxCell>
        <mxCell id="YqOsHQOTy-0xBnUob16i-37" value="&lt;span style=&quot;font-size: 7px; text-wrap: nowrap;&quot;&gt;dictEntry&lt;/span&gt;" style="rounded=0;whiteSpace=wrap;html=1;" vertex="1" parent="1">
          <mxGeometry x="310" y="70" width="30" height="20" as="geometry" />
        </mxCell>
        <mxCell id="YqOsHQOTy-0xBnUob16i-64" value="" style="shape=curlyBracket;whiteSpace=wrap;html=1;rounded=1;labelPosition=left;verticalLabelPosition=middle;align=right;verticalAlign=middle;" vertex="1" parent="1">
          <mxGeometry x="95" y="130" width="50" height="60" as="geometry" />
        </mxCell>
        <mxCell id="YqOsHQOTy-0xBnUob16i-65" value="ht_table" style="text;html=1;align=center;verticalAlign=middle;resizable=0;points=[];autosize=1;strokeColor=none;fillColor=none;" vertex="1" parent="1">
          <mxGeometry x="38" y="145" width="70" height="30" as="geometry" />
        </mxCell>
      </root>
    </mxGraphModel>
  </diagram>
</mxfile>
